<svg height="512pt" viewBox="0 -1 512 512" width="512pt" xmlns="http://www.w3.org/2000/svg"><path d="m259.878906 187.496094h-232.585937v295.003906h232.585937l15.96875-132.050781zm0 0" fill="#000000"/><path d="m27.292969 233.851562h232.585937c1.527344 0 3.035156-.085937 4.519532-.246093l-4.519532-46.113281h-232.585937zm0 0" fill="#000000"/><path d="m259.878906 158.648438h-232.585937c-8.820313 0-15.96875 7.148437-15.96875 15.96875v17.515624c0 8.816407 7.148437 15.964844 15.96875 15.964844h232.585937c8.820313 0 15.96875-7.148437 15.96875-15.964844v-17.515624c0-8.820313-7.148437-15.96875-15.96875-15.96875zm0 0" fill="#000000"/><path d="m259.878906 63.875h232.589844v418.625h-232.589844zm0 0" fill="#000000"/><path d="m259.878906 63.871094h232.589844v50.480468h-232.589844zm0 0" fill="#000000"/><path d="m492.472656 39.148438h-232.59375c-8.816406 0-15.964844 7.148437-15.964844 15.964843v17.515625c0 8.820313 7.148438 15.96875 15.964844 15.96875h232.589844c8.820312 0 15.96875-7.148437 15.96875-15.96875v-17.515625c0-8.816406-7.148438-15.964843-15.964844-15.964843zm0 0" fill="#000000"/><g fill="#3399ff"><path d="m341.28125 125.683594h-25.441406c-4.925782 0-8.914063 3.992187-8.914063 8.914062v41.925782c0 4.921874 3.988281 8.910156 8.914063 8.910156h25.441406c4.921875 0 8.914062-3.988282 8.914062-8.910156v-41.925782c0-4.921875-3.992187-8.914062-8.914062-8.914062zm0 0"/><path d="m341.28125 420.691406h-25.441406c-4.925782 0-8.914063-3.992187-8.914063-8.914062v-41.925782c0-4.921874 3.988281-8.914062 8.914063-8.914062h25.441406c4.921875 0 8.914062 3.992188 8.914062 8.914062v41.925782c0 4.921875-3.992187 8.914062-8.914062 8.914062zm0 0"/><path d="m341.28125 243.3125h-25.441406c-4.925782 0-8.914063 3.988281-8.914063 8.910156v41.925782c0 4.921874 3.988281 8.914062 8.914063 8.914062h25.441406c4.921875 0 8.914062-3.992188 8.914062-8.914062v-41.925782c0-4.921875-3.992187-8.910156-8.914062-8.910156zm0 0"/><path d="m411.070312 125.683594h25.441407c4.925781 0 8.914062 3.992187 8.914062 8.914062v41.925782c0 4.921874-3.988281 8.910156-8.914062 8.910156h-25.441407c-4.921874 0-8.914062-3.988282-8.914062-8.910156v-41.925782c0-4.921875 3.992188-8.914062 8.914062-8.914062zm0 0"/><path d="m411.070312 420.691406h25.441407c4.925781 0 8.914062-3.992187 8.914062-8.914062v-41.925782c0-4.921874-3.988281-8.914062-8.914062-8.914062h-25.441407c-4.921874 0-8.914062 3.992188-8.914062 8.914062v41.925782c0 4.921875 3.992188 8.914062 8.914062 8.914062zm0 0"/><path d="m411.070312 243.3125h25.441407c4.925781 0 8.914062 3.988281 8.914062 8.910156v41.925782c0 4.921874-3.988281 8.914062-8.914062 8.914062h-25.441407c-4.921874 0-8.914062-3.992188-8.914062-8.914062v-41.925782c0-4.921875 3.992188-8.910156 8.914062-8.910156zm0 0"/></g><path d="m108.691406 243.3125h-25.441406c-4.921875 0-8.914062 3.988281-8.914062 8.910156v41.925782c0 4.921874 3.992187 8.914062 8.914062 8.914062h25.441406c4.921875 0 8.914063-3.992188 8.914063-8.914062v-41.925782c0-4.921875-3.992188-8.910156-8.914063-8.910156zm0 0" fill="#3399ff"/><path d="m108.691406 360.9375h-25.441406c-4.921875 0-8.914062 3.992188-8.914062 8.914062v41.925782c0 4.921875 3.992187 8.914062 8.914062 8.914062h25.441406c4.921875 0 8.914063-3.992187 8.914063-8.914062v-41.925782c0-4.921874-3.992188-8.914062-8.914063-8.914062zm0 0" fill="#3399ff"/><path d="m178.480469 243.3125h25.445312c4.921875 0 8.910157 3.988281 8.910157 8.910156v41.925782c0 4.921874-3.988282 8.914062-8.910157 8.914062h-25.445312c-4.921875 0-8.910157-3.992188-8.910157-8.914062v-41.925782c0-4.921875 3.988282-8.910156 8.910157-8.910156zm0 0" fill="#3399ff"/><path d="m178.480469 360.9375h25.445312c4.921875 0 8.910157 3.992188 8.910157 8.914062v41.925782c0 4.921875-3.988282 8.914062-8.910157 8.914062h-25.445312c-4.921875 0-8.910157-3.992187-8.910157-8.914062v-41.925782c0-4.921874 3.988282-8.914062 8.910157-8.914062zm0 0" fill="#3399ff"/><path d="m224.277344 39.371094c-20.945313-25.097656-50.046875-39.371094-80.6875-39.371094-30.644532 0-59.746094 14.273438-80.691406 39.371094-2.082032 2.496094-1.671876 6.21875.917968 8.175781l12.132813 9.164063c2.394531 1.808593 5.785156 1.433593 7.726562-.859376 15.851563-18.714843 37.421875-29.339843 59.910157-29.339843 22.492187 0 44.058593 10.625 59.910156 29.339843 1.941406 2.289063 5.332031 2.664063 7.726562.855469l12.132813-9.164062c2.589843-1.957031 3-5.679688.921875-8.171875zm0 0" fill="#000000"/><path d="m192.3125 71.265625c-12.878906-14.476563-30.339844-22.664063-48.722656-22.664063-18.386719 0-35.847656 8.1875-48.726563 22.664063-2.179687 2.449219-1.746093 6.253906.867188 8.226563l12.171875 9.191406c2.285156 1.726562 5.535156 1.507812 7.488281-.585938 7.753906-8.308594 17.804687-12.984375 28.195313-12.984375 10.390624 0 20.445312 4.675781 28.195312 12.980469 1.957031 2.09375 5.203125 2.316406 7.492188.589844l12.167968-9.191406c2.617188-1.976563 3.046875-5.78125.871094-8.226563zm0 0" fill="#000000"/><path d="m159.050781 117.085938c0 8.539062-6.921875 15.464843-15.464843 15.464843-8.539063 0-15.460938-6.925781-15.460938-15.464843 0-8.539063 6.921875-15.464844 15.460938-15.464844 8.542968 0 15.464843 6.925781 15.464843 15.464844zm0 0" fill="#000000"/><path d="m492.472656 455.058594h-472.941406c-10.785156 0-19.53125 8.746094-19.53125 19.53125v35.351562h512v-35.351562c0-10.785156-8.746094-19.53125-19.527344-19.53125zm0 0" fill="#000000"/></svg>